<?xml version="1.0" encoding="utf-8"?>
<!-- Generator: Adobe Illustrator 28.0.0, SVG Export Plug-In . SVG Version: 6.00 Build 0)  -->
<svg version="1.1" id="Layer_1" xmlns="http://www.w3.org/2000/svg" xmlns:xlink="http://www.w3.org/1999/xlink" x="0px" y="0px"
	 viewBox="0 0 236.66 80" style="enable-background:new 0 0 236.66 80;" xml:space="preserve">
<style type="text/css">
	.st0{fill-rule:evenodd;clip-rule:evenodd;fill:#FFFFFF;}
	.st1{fill:#FFFFFF;}
</style>
<g>
	<path id="im" class="st0" d="M113.17,0c3.94,0,7.13,3.19,7.13,7.13c0,3.94-3.19,7.14-7.13,7.14c-3.94,0-7.14-3.19-7.14-7.14
		C106.03,3.19,109.23,0,113.17,0 M118.52,70.06c-26.16,7.12-54.11-11.05-80.27,6.36C75.11,68.09,95.92,87.15,118.52,70.06
		 M172.03,75.61c-22.59,11.6-29.14-3.87-51.73,0C146.47,64.19,151.22,78.3,172.03,75.61 M151,31.71l16.44,10.68V66h-11.33V46.43
		h-0.44l-3.27,7.36l-2.46,5.54h-7.17l-2.77-5.98l-3.21-7.11h-0.44v16.95c-3.81-0.44-7.63-0.47-11.45-0.19V23.02h12.67l4.72,10.26
		l3.85,8.75h0.25l3.85-8.68L151,31.71z M107.77,31.36l-4.83-1.16v-7.24h16.53v40.63c-3.9,0.56-7.81,1.37-11.71,2.32V31.36z
		 M189.58,56.76l9.71,6.31c-0.26,0.22-0.51,0.44-0.79,0.64c-1.51,1.07-3.32,1.86-5.41,2.36c-2.1,0.5-4.4,0.75-6.92,0.75
		c-0.96,0-2.01-0.05-3.15-0.16c-1.13-0.1-2.3-0.28-3.49-0.53c-1.19-0.25-2.37-0.59-3.52-1.01c-1.16-0.42-2.21-0.92-3.18-1.51
		l2.83-8.24c1.05,0.46,2.11,0.83,3.18,1.1s2.06,0.48,2.99,0.63c0.92,0.15,1.73,0.24,2.42,0.28c0.69,0.04,1.21,0.06,1.54,0.06
		C187.5,57.44,188.76,57.21,189.58,56.76z M236.66,25.16l-1.21,3.54l-20.9-3.68c0.57-0.4,1.17-0.77,1.81-1.11
		c2.29-1.22,5-1.83,8.15-1.83c2.64,0,4.94,0.29,6.89,0.88C233.35,23.54,235.1,24.28,236.66,25.16z"/>
	<path id="sc" class="st1" d="M201.48,58.12l-29.46-17.01c-0.27-1.25-0.38-2.68-0.32-4.33c0.08-2.35,0.58-4.31,1.5-5.9
		c0.92-1.58,2.12-2.84,3.63-3.78c1.5-0.93,3.22-1.59,5.14-1.96c1.92-0.37,3.93-0.52,6.03-0.45c0.88,0.03,1.85,0.13,2.92,0.29
		c1.06,0.16,2.15,0.39,3.25,0.68c1.1,0.29,2.19,0.65,3.27,1.09c1.07,0.44,2.05,0.94,2.91,1.52l-2.66,7.78
		c-0.87-0.37-1.78-0.68-2.74-0.95c-0.96-0.26-1.85-0.47-2.69-0.63c-0.83-0.15-1.59-0.28-2.25-0.36c-0.67-0.09-1.15-0.13-1.44-0.15
		c-1.59-0.06-2.77,0.18-3.52,0.7c-0.75,0.52-1.15,1.39-1.19,2.6c-0.03,0.96,0.32,1.73,1.05,2.3c0.74,0.57,1.87,1.14,3.4,1.69
		c2.74,0.98,4.98,1.95,6.73,2.91c1.75,0.96,3.13,2.02,4.14,3.17c1.01,1.15,1.69,2.45,2.04,3.91c0.35,1.46,0.49,3.2,0.42,5.21
		C201.59,57.04,201.55,57.59,201.48,58.12z M219.68,38.43c1.27-2.03,3.18-3.01,5.74-2.92c2.48,0.09,4.99,0.68,7.56,1.77l1.65-4.34
		l-20.75-4.41c-1.53,0.99-2.86,2.2-3.98,3.63c-1.56,1.98-2.73,4.28-3.52,6.9c-0.78,2.62-1.23,5.37-1.33,8.27
		c-0.11,3.23,0.04,6.23,0.47,9.02c0.27,1.76,0.7,3.36,1.27,4.83l16.41,9.47c1.71-0.06,3.39-0.22,5.05-0.51
		c2.53-0.44,4.79-1.23,6.76-2.38l-2.42-8.27c-1.19,0.34-2.21,0.62-3.08,0.84c-0.87,0.22-1.65,0.38-2.35,0.48
		c-0.7,0.1-1.33,0.16-1.9,0.19c-0.57,0.02-1.13,0.02-1.67,0c-1.97-0.07-3.51-1.25-4.6-3.53c-1.1-2.28-1.56-5.71-1.41-10.28
		C217.71,43.39,218.41,40.46,219.68,38.43z M166.86,24.9l-12.41-0.43l-2.54,5.03l14.5,8.37L166.86,24.9z"/>
	<path id="beam1" class="st0" d="M96.02,12.05L0,39.59c0.75,2.63,1.6,5.24,2.54,7.82L96.4,13.24
		C96.26,12.85,96.14,12.45,96.02,12.05z"/>
	<path id="beam2" class="st0" d="M97.13,14.96L24.99,50.14c1.25,2.57,2.61,5.07,4.08,7.52l68.8-41.34
		C97.61,15.88,97.36,15.42,97.13,14.96z"/>
</g>
<g id="_x31_1th">
	<path class="st1" d="M66.56,59.63V47.14h-3.21v-1.99l6.31-1.25v15.73h3.9v2.58h-10.8v-2.58H66.56z"/>
	<path class="st1" d="M81.04,59.63V47.14h-3.21v-1.99l6.31-1.25v15.73h3.9v2.58h-10.8v-2.58H81.04z"/>
	<path class="st1" d="M93.17,53.21c-0.5,0-0.9-0.07-1.2-0.21c-0.29-0.14-0.51-0.33-0.66-0.57c-0.15-0.24-0.25-0.53-0.3-0.86
		c-0.05-0.33-0.07-0.69-0.07-1.08v-3.97H89.7v-0.94l1.29-0.34l0.56-2.08h1.2v2.08h1.95v1.28h-1.95v4.15c0,0.42,0.07,0.71,0.23,0.87
		c0.15,0.16,0.4,0.24,0.76,0.24c0.19,0,0.38-0.01,0.57-0.03c0.18-0.02,0.4-0.05,0.65-0.1c0.03,0.19,0.06,0.39,0.1,0.59
		c0.03,0.2,0.07,0.4,0.11,0.61c-0.17,0.08-0.36,0.14-0.56,0.19c-0.2,0.05-0.39,0.09-0.57,0.11c-0.18,0.03-0.35,0.04-0.51,0.06
		C93.36,53.2,93.25,53.21,93.17,53.21z"/>
	<path class="st1" d="M100.29,52.98V47.9c0-0.2-0.01-0.39-0.03-0.57c-0.02-0.17-0.07-0.32-0.14-0.45c-0.07-0.13-0.18-0.23-0.31-0.3
		c-0.13-0.07-0.31-0.11-0.54-0.11c-0.3,0-0.59,0.08-0.87,0.23c-0.28,0.16-0.51,0.3-0.68,0.43v5.84H95.9V41.55h1.79v4.49l1.07-0.65
		c0.16-0.1,0.34-0.18,0.54-0.26c0.2-0.08,0.37-0.11,0.52-0.11c0.53,0,0.94,0.1,1.25,0.29c0.31,0.19,0.54,0.44,0.69,0.73
		c0.15,0.29,0.24,0.6,0.28,0.94c0.04,0.33,0.06,0.64,0.06,0.92v5.08H100.29z"/>
</g>
</svg>
